<svg xmlns="http://www.w3.org/2000/svg" viewBox="0 0 512 512" role="img" aria-labelledby="title desc">
  <title id="title">Luibrand Tile icon</title>
  <desc id="desc">A white serif capital L over a black tile with a gold cross and border.</desc>
  <rect width="512" height="512" fill="#000000"/>
  <rect x="0" y="252" width="512" height="8" fill="#d4a849"/>
  <rect x="252" y="0" width="8" height="512" fill="#d4a849"/>
  <rect x="12" y="12" width="488" height="488" fill="none" stroke="#d4a849" stroke-width="22"/>
  <path fill="#ffffff" d="M264.76 405.33Q278.49 405.33 290.56 403.43Q302.63 401.54 312.09 398.70Q321.56 395.86 330.32 390.41Q339.08 384.97 344.99 381.18Q350.91 377.40 357.07 369.59Q363.22 361.78 366.53 357.75Q369.85 353.73 374.11 345.21Q378.37 336.69 379.79 333.61Q381.21 330.53 384.76 322.01Q388.31 313.49 388.78 312.54L402.51 312.54L383.10 420L109.49 420L109.49 408.17Q135.53 404.85 142.86 398.70Q150.20 392.54 150.20 374.56L150.20 145.44Q150.20 127.46 141.92 120.36Q133.63 113.25 109.49 111.83L109.49 100L274.70 100L274.70 111.83Q243.93 113.25 235.41 121.07Q226.89 128.88 226.89 155.38L226.89 378.82Q226.89 393.96 234.93 399.64Q242.98 405.33 264.76 405.33"/>
</svg>