<svg xmlns="http://www.w3.org/2000/svg" viewBox="0 0 512 512" role="img" aria-labelledby="title desc">
  <title id="title">Luibrand Tile icon</title>
  <desc id="desc">A crisp ivory capital L over a charcoal tile grid with copper grout lines.</desc>
  <defs>
    <filter id="letterShadow" x="-16%" y="-16%" width="132%" height="132%">
      <feDropShadow dx="0" dy="8" stdDeviation="8" flood-color="#000000" flood-opacity="0.42" />
    </filter>
  </defs>

  <rect width="512" height="512" rx="76" fill="#17120e" />
  <rect x="22" y="22" width="468" height="468" rx="58" fill="none" stroke="#c98c5a" stroke-width="20" />
  <path d="M256 56v400M56 256h400" fill="none" stroke="#c98c5a" stroke-width="20" stroke-linecap="square" />
  <path d="M256 56v400M56 256h400" fill="none" stroke="#f0c089" stroke-width="6" stroke-linecap="square" opacity="0.58" />
  <rect x="50" y="50" width="412" height="412" rx="32" fill="none" stroke="#2a2119" stroke-width="6" opacity="0.85" />

  <path
    filter="url(#letterShadow)"
    fill="#fffaf0"
    d="M140 112h142v38l-42 7v190c0 21 10 31 31 31h59c38 0 60-22 73-65h42l-30 91H140v-38l42-7V157l-42-7V112Z"
  />
</svg>
