<svg xmlns="http://www.w3.org/2000/svg" viewBox="0 0 512 512" role="img" aria-label="Luibrand Tile">
  <defs>
    <linearGradient id="tileGold" x1="64" y1="44" x2="448" y2="468" gradientUnits="userSpaceOnUse">
      <stop offset="0" stop-color="#ffe27a" />
      <stop offset="0.35" stop-color="#d8a640" />
      <stop offset="0.7" stop-color="#9b6423" />
      <stop offset="1" stop-color="#f2c76b" />
    </linearGradient>
    <linearGradient id="letterFace" x1="148" y1="84" x2="344" y2="420" gradientUnits="userSpaceOnUse">
      <stop offset="0" stop-color="#ffffff" />
      <stop offset="0.52" stop-color="#f7f4ec" />
      <stop offset="1" stop-color="#ffffff" />
    </linearGradient>
    <filter id="softShadow" x="-20%" y="-20%" width="140%" height="140%">
      <feDropShadow dx="0" dy="5" stdDeviation="6" flood-color="#000000" flood-opacity="0.5" />
    </filter>
  </defs>

  <rect width="512" height="512" rx="58" fill="#121110" />
  <rect x="41" y="41" width="430" height="430" rx="8" fill="#090a0a" />
  <path d="M42 42h428M42 470h428M42 42v428M470 42v428" fill="none" stroke="url(#tileGold)" stroke-width="14" stroke-linecap="square" />
  <path d="M256 42v428M42 259h428" fill="none" stroke="url(#tileGold)" stroke-width="8" stroke-linecap="square" opacity="0.95" />
  <path d="M256 42v138M256 276v194M42 259h152M318 259h152" fill="none" stroke="#fff0a7" stroke-width="3" stroke-linecap="square" opacity="0.35" />

  <path
    filter="url(#softShadow)"
    fill="url(#letterFace)"
    d="M154 112c0-8 7-15 15-15h136c9 0 16 7 16 15 0 10-8 18-18 18h-34c-16 0-24 8-24 24v198c0 16 8 24 24 24h70c34 0 59-20 73-60 3-9 11-14 20-12 9 2 14 10 12 19l-20 86H170c-9 0-16-7-16-16 0-9 7-17 16-17h25c16 0 24-8 24-24V154c0-16-8-24-24-24h-26c-8 0-15-7-15-18Z"
  />
</svg>
